<?xml version="1.0" standalone="no"?>
<!DOCTYPE svg PUBLIC "-//W3C//DTD SVG 20010904//EN"
 "http://www.w3.org/TR/2001/REC-SVG-20010904/DTD/svg10.dtd">
<svg version="1.0" xmlns="http://www.w3.org/2000/svg"
 width="16.000000pt" height="16.000000pt" viewBox="0 0 16.000000 16.000000"
 preserveAspectRatio="xMidYMid meet">

<g transform="translate(0.000000,16.000000) scale(0.100000,-0.100000)"
fill="#000000" stroke="none">
<path d="M25 135 c-33 -34 -33 -78 0 -110 32 -33 78 -33 110 0 50 49 15 135
-54 135 -19 0 -40 -9 -56 -25z m100 -10 c32 -31 32 -59 0 -90 -13 -14 -34 -25
-45 -25 -27 0 -70 43 -70 70 0 27 43 70 70 70 12 0 32 -11 45 -25z"/>
<path d="M70 101 c0 -5 -3 -16 -6 -25 -4 -12 0 -16 16 -16 16 0 20 4 16 16 -3
9 -6 20 -6 25 0 5 -4 9 -10 9 -5 0 -10 -4 -10 -9z"/>
</g>
</svg>
